# xmcd
#
# Track frame offsets:
#	150
#	2100
#	14780
#	29784
#	45932
#	59429
#	73741
#	86196
#	102217
#	119308
#	131693
#	149575
#	171287
#	187373
#	203386
#	218845
#
# Disc length: 3359 seconds
#
# Revision: 0
# Processed by: cddbd v1.5.2PL0 Copyright (c) Steve Scherf et al.
# Submitted via: audiograbber 1.83.01
#
DISCID=f60d1d10
DTITLE=The BossHoss - Rodeo Radio
DYEAR=2006
DGENRE=Rock
TTITLE0=The BossHoss - Intro
TTITLE1=The BossHoss - Rodeo Radio
TTITLE2=The BossHoss - Ring, Ring, Ring
TTITLE3=The BossHoss - My Favourite Game
TTITLE4=The BossHoss - I Say A Little Prayer
TTITLE5=The BossHoss - I'm On A High
TTITLE6=The BossHoss - Hell Yeah
TTITLE7=The BossHoss - Hot Stuff
TTITLE8=The BossHoss - Rodeo Queen
TTITLE9=The BossHoss - It's Not Unusual
TTITLE10=The BossHoss - Shake A Leg
TTITLE11=The BossHoss - Mary Me
TTITLE12=The BossHoss - Jesus Built My Hotrod
TTITLE13=The BossHoss - Upside Down
TTITLE14=The BossHoss - Ca Plane Pour Moi
TTITLE15=The BossHoss - You'll Never Walk Alone
EXTD=YEAR: 2006
EXTT0=
EXTT1=
EXTT2=
EXTT3=
EXTT4=
EXTT5=
EXTT6=
EXTT7=
EXTT8=
EXTT9=
EXTT10=
EXTT11=
EXTT12=
EXTT13=
EXTT14=
EXTT15=
PLAYORDER=
